<svg xmlns="http://www.w3.org/2000/svg" viewBox="0 0 262.83 307.35"><defs><style>.cls-1{fill:#010101;}.cls-2{fill:#473c40;}.cls-3{fill:#fcd021;}.cls-4{fill:#facf20;}.cls-5{fill:#463c3f;}.cls-6{fill:#f9cf25;}.cls-7{fill:#f9cf24;}.cls-8{fill:#f7cd22;}.cls-9{fill:#f7ce20;}.cls-10{fill:#f1cb1f;}.cls-11{fill:#040114;}.cls-12{fill:#f1c917;}.cls-13{fill:#efc81d;}.cls-14{fill:#f5cc20;}.cls-15{fill:#f0c72f;}.cls-16{fill:#07050c;}.cls-17{fill:#fad116;}.cls-18{fill:#0d0409;}.cls-19{fill:#04040a;}.cls-20{fill:#080c1b;}.cls-21{fill:#0a0a0a;}.cls-22{fill:#070116;}.cls-23{fill:#030013;}.cls-24{fill:#ebc717;}.cls-25{fill:#0e0e07;}.cls-26{fill:#fdd22d;}.cls-27{fill:#fcd435;}.cls-28{fill:#fdcf0f;}.cls-29{fill:#f3ce13;}.cls-30{fill:#191411;}.cls-31{fill:#eec72e;}.cls-32{fill:#fcc808;}.cls-33{fill:#0e0a08;}.cls-34{fill:#fdcb2e;}.cls-35{fill:#fdd22c;}.cls-36{fill:#fbd713;}.cls-37{fill:#f7d205;}.cls-38{fill:#fed22e;}.cls-39{fill:#fad004;}.cls-40{fill:#fcd22d;}.cls-41{fill:#0d0b06;}.cls-42{fill:#fdd011;}.cls-43{fill:#fad11c;}.cls-44{fill:#fecf13;}.cls-45{fill:#f6cd09;}</style></defs><g id="Laag_2" data-name="Laag 2"><g id="Laag_1-2" data-name="Laag 1"><path class="cls-1" d="M213.37,242.28c15.26,2.1,29.72,6.15,40.52,18.09,6.07,6.72,9.35,14.83,8.8,24-.88,14.28-13.08,23.93-28.06,22.84a49.62,49.62,0,0,1-22.55-7c-12.93-7.87-27.1-9.53-41.79-9-17.92.69-35.57,3.91-53.34,6-19.83,2.28-39.63,3.23-59.5.28-26.88-4-46.8-22.14-53.88-50S1.09,193.32,13.84,168.1c7.5-14.84,17.88-27.57,29.52-39.34C57.59,114.37,71.49,99.69,81.58,81.9c7.67-13.51,12.89-28,18.14-42.56,4.21-11.64,8.92-23.09,15.79-33.47,4.15-6.28,6.79-6.54,12.39-1.38a70.91,70.91,0,0,1,14,18.39c1,1.93,2,2.5,4.31,2.31,11.68-1,23.38-1.74,35.09-.51a3.27,3.27,0,0,0,3.85-2.08,81,81,0,0,1,13-19.54c3-3.25,5.44-3.48,8.95-.8,3.23,2.46,5.47,5.76,7.52,9.18,9,15.09,14,31.65,17.19,48.78,5.77,31.11,5.71,62.43,2.87,93.82-2.34,25.74-7.19,50.92-16.76,75-.81,2-1.78,4-2.67,6-1.44,1.23-3.1.86-4.75.66-8.66-1.08-17.36-2-26.09-1.59a392.86,392.86,0,0,0-50,5.91c-14.57,2.6-29,6.17-43.64,8.25-11.41,1.61-22.84,2.47-34.3.37-2.83-.52-5.57-1.33-8.45-2a12.13,12.13,0,0,0,4.94,3.66,41.63,41.63,0,0,0,14.51,3c16.42.76,32.31-2.57,48.2-6,14.92-3.23,30.05-5.1,45.22-6.67a280,280,0,0,1,32.76-1.28c4.86.08,9.68.7,14.52,1.11A10.82,10.82,0,0,1,213.37,242.28Z"/><path d="M213.39,242.23c10.31,1.42,20.79,3.81,29.81,9.26a47.09,47.09,0,0,1,11.91,10.18,33.2,33.2,0,0,1,7,14,30.68,30.68,0,0,1,.71,7.82,25.34,25.34,0,0,1-1.43,7.72,23.88,23.88,0,0,1-3.82,6.87,25.43,25.43,0,0,1-5.88,5.21,27.76,27.76,0,0,1-15,4.1,51.08,51.08,0,0,1-15.44-2.75,47.23,47.23,0,0,1-7.21-3.17c-2.29-1.28-4.51-2.65-6.87-3.79a61.24,61.24,0,0,0-14.86-4.87c-10.29-2-20.86-1.66-31.28-.82s-20.81,2.36-31.19,3.76S109,298.38,98.56,299a210,210,0,0,1-31.43-.23,118.5,118.5,0,0,1-15.57-2.27l-3.82-1L44,294.29l-.93-.32-.91-.38-1.82-.77-1.81-.77-1.75-.9a61.85,61.85,0,0,1-23.37-20.68,72.38,72.38,0,0,1-7.22-14l-1.35-3.7L3.73,249c-.39-1.25-.67-2.54-1-3.82s-.63-2.55-.83-3.85A104.09,104.09,0,0,1,.63,210a105.64,105.64,0,0,1,2.84-15.48c.61-2.56,1.43-5,2.2-7.56s1.7-5,2.7-7.4A144.3,144.3,0,0,1,15,165.24a135.46,135.46,0,0,1,8.3-13.38,188.55,188.55,0,0,1,20.42-23.92c7.35-7.45,14.61-15,21.3-23A157.31,157.31,0,0,0,82.74,79.08,229.26,229.26,0,0,0,95.31,50.35c3.66-9.8,6.93-19.79,11.4-29.31A119.42,119.42,0,0,1,114.2,7.18c.71-1.1,1.41-2.22,2.23-3.27a10.62,10.62,0,0,1,2.94-2.8,4.52,4.52,0,0,1,4.11-.23,12.89,12.89,0,0,1,3.39,2.19,62.56,62.56,0,0,1,10.51,11.77c1.51,2.15,2.89,4.4,4.19,6.68.67,1.14,1.18,2.39,2.18,2.94s2.32.31,3.63.22c10.43-.88,21-1.5,31.45-.65l2,.18a6.81,6.81,0,0,0,1.85,0,2.28,2.28,0,0,0,1.43-.8,7.58,7.58,0,0,0,.94-1.59c1.17-2.35,2.43-4.67,3.77-6.93a70.41,70.41,0,0,1,9.45-12.65A7.65,7.65,0,0,1,201.73.11a5.66,5.66,0,0,1,4.06.81,21.52,21.52,0,0,1,5.87,5.41A57.8,57.8,0,0,1,215.94,13c1.33,2.27,2.53,4.61,3.7,7A144.16,144.16,0,0,1,230,49.67a286.47,286.47,0,0,1,7,62.45c.08,10.49-.29,21-1,31.44s-1.74,20.91-3.32,31.28a271.81,271.81,0,0,1-6.44,30.81q-2.09,7.59-4.66,15l-1.32,3.71-1.4,3.68c-.44,1.24-1,2.42-1.54,3.63l-1.6,3.6,0,.1-.09.08a4.17,4.17,0,0,1-2.75,1,20.45,20.45,0,0,1-2.69-.26l-5.24-.62c-3.5-.4-7-.72-10.5-.9a152.73,152.73,0,0,0-21,.67A421.28,421.28,0,0,0,131.45,241c-13.83,2.57-27.56,5.87-41.55,7.78a134.44,134.44,0,0,1-21.12,1.45,81.2,81.2,0,0,1-10.56-.92c-3.52-.5-6.92-1.53-10.33-2.32l.32-.51a11.39,11.39,0,0,0,4,3.18,31.68,31.68,0,0,0,4.88,1.81,45.46,45.46,0,0,0,10.32,1.59,124.68,124.68,0,0,0,21-.95c7-.88,13.85-2.19,20.72-3.63l10.31-2.17q5.18-1,10.37-1.88c6.94-1.12,13.91-2,20.89-2.83s14-1.56,21-1.93,14-.49,21.07-.38c3.52,0,7,.33,10.51.68l5.25.5A11,11,0,0,1,213.39,242.23Zm0,.1a10.57,10.57,0,0,0-4.92-1.69l-5.24-.49c-3.49-.33-7-.63-10.5-.63-7-.08-14.05,0-21.05.47s-14,1.21-21,2-13.93,1.76-20.85,2.91c-3.46.58-6.92,1.21-10.35,1.91L109.18,249c-6.88,1.45-13.79,2.78-20.77,3.67a123.5,123.5,0,0,1-21.06,1,45.81,45.81,0,0,1-10.46-1.59,31.15,31.15,0,0,1-5-1.84,12.14,12.14,0,0,1-4.19-3.34l-.57-.72.89.21c3.45.79,6.81,1.8,10.29,2.28a78.11,78.11,0,0,0,10.47.89,132.16,132.16,0,0,0,21-1.49c13.94-1.93,27.64-5.25,41.5-7.86s27.84-4.6,41.9-5.78c7-.54,14.09-1.13,21.17-.71,3.53.18,7,.49,10.55.88l5.26.62a19.54,19.54,0,0,0,2.55.24,3.18,3.18,0,0,0,2.12-.75l-.13.17,1.59-3.58c.52-1.19,1.09-2.37,1.53-3.6l1.4-3.66,1.32-3.69q2.56-7.41,4.65-15a271.94,271.94,0,0,0,6.43-30.69c1.59-10.34,2.6-20.76,3.33-31.21s1.11-20.9,1-31.37a285.69,285.69,0,0,0-6.9-62.25,143.73,143.73,0,0,0-10.25-29.54c-1.16-2.34-2.35-4.66-3.67-6.92A57.07,57.07,0,0,0,211,6.86a20.7,20.7,0,0,0-5.61-5.2,4.83,4.83,0,0,0-3.45-.72,6.8,6.8,0,0,0-3.08,2,68.74,68.74,0,0,0-9.33,12.47c-1.33,2.24-2.57,4.54-3.74,6.87A8.21,8.21,0,0,1,184.71,24a3.12,3.12,0,0,1-1.93,1.07,7.5,7.5,0,0,1-2.07,0l-1.94-.18c-10.42-.85-20.9-.25-31.33.63-.65,0-1.29.12-2,.14a4.24,4.24,0,0,1-2.09-.46,4.3,4.3,0,0,1-1.51-1.52c-.37-.6-.65-1.16-1-1.73-1.29-2.27-2.66-4.49-4.15-6.62A62.33,62.33,0,0,0,126.37,3.67a12.54,12.54,0,0,0-3.18-2.06,3.73,3.73,0,0,0-3.44.18,10,10,0,0,0-2.7,2.59c-.79,1-1.48,2.12-2.19,3.22a117.08,117.08,0,0,0-7.46,13.76C103,30.83,99.68,40.79,96,50.61a228.73,228.73,0,0,1-12.63,28.8,157.43,157.43,0,0,1-17.83,25.91c-6.71,8.07-14,15.63-21.36,23.08A187.83,187.83,0,0,0,23.8,152.22a135,135,0,0,0-8.28,13.31,143,143,0,0,0-6.6,14.21c-1,2.42-1.84,4.89-2.7,7.36s-1.58,5-2.19,7.52A104.84,104.84,0,0,0,1.19,210a103.36,103.36,0,0,0,1.28,31.2c.19,1.3.55,2.56.82,3.83s.56,2.56,1,3.8l1.09,3.76,1.33,3.68a72.14,72.14,0,0,0,7.16,13.89A61.46,61.46,0,0,0,37,290.73l1.74.9,1.8.76,1.8.77.91.38.92.31,3.71,1.25,3.79,1a115.51,115.51,0,0,0,15.51,2.28,210.43,210.43,0,0,0,31.36.27c10.46-.63,20.86-1.87,31.24-3.27s20.77-2.89,31.22-3.74,21-1.19,31.36.87a65,65,0,0,1,7.61,2,64,64,0,0,1,7.31,2.93c2.36,1.14,4.6,2.53,6.88,3.81a47.62,47.62,0,0,0,7.16,3.16,50.63,50.63,0,0,0,15.37,2.74,27.49,27.49,0,0,0,14.89-4,25.23,25.23,0,0,0,5.84-5.16,23.77,23.77,0,0,0,3.78-6.8,25,25,0,0,0,1.43-7.66,30.43,30.43,0,0,0-.69-7.79A33.13,33.13,0,0,0,255,261.77a46.56,46.56,0,0,0-11.86-10.16,59.24,59.24,0,0,0-14.39-6.15A108.46,108.46,0,0,0,213.35,242.33Z"/><path class="cls-2" d="M213.37,242.28c-16.77-2.51-33.54-2.13-50.4-.71-22,1.84-43.55,6.09-65.13,10.46-12.32,2.5-24.9,3.6-37.49,1.61-5.16-.81-10.06-2.49-13.82-6.43-.59-.62-1.58-1.36-1-2.23.7-1,1.56.07,2.31.33,9.74,3.38,19.71,4,30,3.32,22.73-1.55,44.57-8.15,67-11.37,11.23-1.6,22.46-3,33.81-3.66a166.23,166.23,0,0,1,33.6,1.46,22.72,22.72,0,0,0,3,.05c-.72,1.67-1.33,3.39-2.19,5C212.47,241.06,212.56,241.67,213.37,242.28Z"/><path class="cls-3" d="M128.94,84.42c-1.92-.21-3.84-.42-5.4-1.76-.67-.92,1.29-1.61.24-2.55a.49.49,0,0,1-.26-.45c-.26.43.3.53.35.85,0,.82-.51,1.33-.91,1.92-.75,0-1-.56-1.39-1.06-.2-.48-.81-.69-.85-1.26.13-.75-.45-.6-.86-.68-1.46-1.55-1.36-3.89-2.8-5.46-.25-.78.61-1.53.06-2.3-.64.2-.92.85-1.49,1.13a.78.78,0,0,1-.78-.2c-1.92-3.87-2-8-1.88-12.22,0-1.61,1-2.56,2.16-3.47a21.53,21.53,0,0,1,9.63-4.34c2.29-1,4.53.51,6.81.15l2-.16A43.24,43.24,0,0,0,138.28,54c2.67,1.93,6.31,2.78,7.34,6.56-.11.13-.21.25-.31.39a3,3,0,0,1-2.38.25,1.73,1.73,0,0,1-1-.88c-.17-.84-.45-1.6-1.43-1.82-1.73-.88-3.55-1.58-5.25-2.53a7.24,7.24,0,0,0-3.45-.46,4.93,4.93,0,0,0-4.29,1.61c-1.51,1.7-2.36,3.89-4.11,5.4-2.18,1.76-1.13,4.22-1.26,6.36a8.72,8.72,0,0,0,.7,3.5,40.67,40.67,0,0,0,2.08,4.31,6.25,6.25,0,0,0,3,2.81c.91.49,1.85.92,2.78,1.36,2,.92,4-.17,6,.29,1.59.76,4-.32,4.84,2.1a7.31,7.31,0,0,1-4,1.2c-1.17-1.08-2.1-.34-3,.4C132.6,85.31,130.84,83.91,128.94,84.42Z"/><path class="cls-4" d="M207.89,81c-.61.34-1,1.17-1.89.85-1.08.73-2.44,1-3.42,1.9l-.22.17-.27,0c-3,.2-5.87,1.47-8.92.63-5-.19-9.29-2.32-13.43-4.85A3.18,3.18,0,0,1,178.12,77c-.15-5.09.2-10.09,3.14-14.51a4.22,4.22,0,0,1,1,1.6,3.43,3.43,0,0,0-1-1.58,12.73,12.73,0,0,1,7.3-7.24c1.09-.62,1.62-.1,1.91.93-.07,2.45-2.57,3.4-3.3,5.44a12.67,12.67,0,0,0-1.31,8.7,18.55,18.55,0,0,0,1.26,4.33,13.59,13.59,0,0,0,1.39,2.2,30.82,30.82,0,0,0,3.38,3.38c2.08,2.06,4.35.88,6.58.4,2.24-.77,3.82-2.5,5.64-3.85a2.48,2.48,0,0,0,1.18-1.66,4.35,4.35,0,0,1,.36-.79c1.15-1,1-2.27,1.05-3.57a5.78,5.78,0,0,1,.19-.92c.43-1.55-.27-3.34,1-4.7,2.68,1.21.94,3.79,1.74,5.58.14.27.27.55.41.82a17.36,17.36,0,0,1,.28,2.61,2,2,0,0,1-.68,1.55c-.55.63-2.23,1.17-.16,2A1.38,1.38,0,0,1,210,79.3h0C209,79.49,208.49,80.32,207.89,81Z"/><path class="cls-3" d="M209.87,73.87c-1-.67-.16-1.32,0-2-1.35-2.41-.16-5.14-.94-7.62-.1-.89.59-1.57.63-2.33-.47.91-.51,2.15-1.6,2.81-.92.2-1.37-.51-1.94-1-1.13-2.62-3.15-4.51-5.21-6.36a4.85,4.85,0,0,0-2.37-1.5,2.43,2.43,0,0,1-.63-.46,1.33,1.33,0,0,1-.14-.71c-.82-.34-1.46.33-2.2.42-.54.22-1.06.48-1.59.74-1.26.45-2.44,1.35-3.91.78a1.32,1.32,0,0,0-1.44-1.4c.65-2.65,3.13-1.85,4.78-2.35,7.5-2.3,14.35-.72,20.59,3.89a5,5,0,0,1,2.39,4.11c0,4.78-.38,9.47-2.84,13.73-.54.13-.76.86-1.42.79-.62-.23-1-.85-1.59-1.09A1.62,1.62,0,0,1,209.87,73.87Z"/><path class="cls-5" d="M165.14,81.18a11.15,11.15,0,0,1,5.35,1.19c1.65.73,1.94,2,1.42,3.55-.63,1.85-5.2,4.6-7.33,4.51-2.31-.09-7.14-3.41-7.66-5.24-.39-1.37.44-2.07,1.44-2.63A13.48,13.48,0,0,1,165.14,81.18Z"/><path class="cls-6" d="M141.55,83.2c-1.57-1.22-3.64-.52-5.32-1.36a.75.75,0,0,1-.23-.54c0-.2,0-.3.07-.3a72.82,72.82,0,0,0,7.22-6.73c2.91.75,2.94.82.83,3.1-.13.13-.39,0-.18.23.06.07.21-.08.3,0,2.08.89,1.25-2.47,3-2a2.42,2.42,0,0,1,.89.06,1.77,1.77,0,0,1,.9.89,2.21,2.21,0,0,1-.38,1.48c-.06.42.24.59.55.76a1.21,1.21,0,0,1,.5.55A16.77,16.77,0,0,1,141.55,83.2Z"/><path class="cls-7" d="M148.17,77.87l.67-1.34c-.71-2.62-.13-5.2-.3-7.14-.57,1.63.49,4.17-.36,6.48h-.67c-1.06-1-.79-2.38-.91-3.62s-.13-2.63-1.65-3.2a23.34,23.34,0,0,0-1-3.47,2.05,2.05,0,0,1,0-.89,3.59,3.59,0,0,1,1.29-1.19,2.18,2.18,0,0,1,1.2-.45,9.27,9.27,0,0,0,2.27.9c2.3,4.13,2.44,8.63,2.23,13.18,0,.89-.22,1.77-1.24,2.13l-.86-.08C148.48,78.81,147.77,78.63,148.17,77.87Z"/><path class="cls-8" d="M117.64,73.86c1.79,1.33,1.67,3.61,2.68,5.33a1.18,1.18,0,0,1,.65.65l.6,1.53a14.5,14.5,0,0,1-6.72-8.77l.82,0c.48-.1,1-.38,1.45-.08C117.43,72.88,117.18,73.5,117.64,73.86Z"/><path class="cls-9" d="M211.87,75.2l1.59-.57A9.57,9.57,0,0,1,210,79.3c-.26-.48-.53-1-.79-1.45a3.07,3.07,0,0,1,.22-1.58,1.84,1.84,0,0,1,.85-.85A3,3,0,0,1,211.87,75.2Z"/><path class="cls-10" d="M193.17,84.55c3,.32,5.88-1.29,8.92-.63A13.36,13.36,0,0,1,193.17,84.55Z"/><path class="cls-11" d="M110.87,60.63v6h-.53v-6Z"/><path class="cls-12" d="M148.71,64c-1.56,2.34-1.78-.09-2.51-.71-.15-1.09.24-1.63,1.4-1.36A2.75,2.75,0,0,1,148.71,64Z"/><path class="cls-13" d="M128.94,84.42c2-1.49,4,.84,6-.06a.67.67,0,0,1,.87.23A10.79,10.79,0,0,1,128.94,84.42Z"/><path class="cls-14" d="M131.57,52.72c-2.3,1.23-4.53-.67-6.81-.15A7.82,7.82,0,0,1,131.57,52.72Z"/><path class="cls-15" d="M147.6,61.88a2.3,2.3,0,0,0-1.4,1.36l-.67.67a2.35,2.35,0,0,1-.06-3.29l.15-.11C146.59,60.51,147.51,60.6,147.6,61.88Z"/><path class="cls-6" d="M135.77,84.59l-.87-.22c.11-.79.32-1.62,1.26-1.59s1,1,1.38,1.62Z"/><path class="cls-10" d="M202.58,83.78c.48-1.81,2.13-1.54,3.42-1.9C205.35,83.4,203.94,83.55,202.58,83.78Z"/><path class="cls-14" d="M138.28,54a6,6,0,0,1-4.72-1.39A7.39,7.39,0,0,1,138.28,54Z"/><path class="cls-16" d="M185.54,85.58c-.91.21-1.74.6-2.36-.25a.93.93,0,0,1,.28-.84C184.47,84.1,184.87,85,185.54,85.58Z"/><path class="cls-17" d="M123,82.43c.22-.64.44-1.28.67-1.92.05-.39.41-.47.66-.66,2.37,1.64-1.17,1.69-.75,2.81A1.39,1.39,0,0,1,123,82.43Z"/><path class="cls-18" d="M111.47,57c-.64-.86-1.28-1.45-.69-1.94s.79.24.86.71A6.06,6.06,0,0,1,111.47,57Z"/><path class="cls-19" d="M219.21,69.3c-.14.23-.26.7-.56.89s-.66-.11-.56-.49a1.91,1.91,0,0,1,.59-1.1C219.15,68.31,219.08,68.85,219.21,69.3Z"/><path class="cls-20" d="M203.77,85a2,2,0,0,1,2.16-1C205.53,85,204.78,85.15,203.77,85Z"/><path class="cls-21" d="M71,103.51l-1.52-2C71.05,101.3,71.18,102.09,71,103.51Z"/><path class="cls-22" d="M190.08,51.22c.21.55-.12.68-.42.65a1.07,1.07,0,0,1-.72-.42c-.18-.34.1-.61.44-.57A1.83,1.83,0,0,1,190.08,51.22Z"/><path class="cls-23" d="M135.25,49.72c-1.11.27-1.77.5-2.4-.12A2.32,2.32,0,0,1,135.25,49.72Z"/><path class="cls-9" d="M207.89,81A1.73,1.73,0,0,1,210,79.29,2.83,2.83,0,0,1,207.89,81Z"/><path class="cls-1" d="M144.21,64.6l.09.67a21.77,21.77,0,0,1,.68,6.17,4,4,0,0,1-1.56,2.9,15.65,15.65,0,0,1-7.2,6.89c-2,.26-4,.73-5.95,0l-2.66-1.39a18.12,18.12,0,0,0-3-2.73l-2.23-4.56c-.71-3.59-1.34-7.18.78-10.56l3.79-5.36c1.49-1,3-1.92,4.93-1.67,1.25.13,2.54-.29,3.76.29L140.79,58c.93.29,1.13,1.12,1.41,1.89l.45.82C144.08,61.63,145.07,62.74,144.21,64.6Z"/><path class="cls-8" d="M123.15,62c-1.23,3.45-1,7-.78,10.56-2.05-2.94-.78-6.25-1-9.39C121.34,62.28,122.46,62.26,123.15,62Z"/><path class="cls-24" d="M144.21,64.6l-1.56-3.91,2.82-.07.06,3.29A1.39,1.39,0,0,1,144.21,64.6Z"/><path class="cls-25" d="M124.6,77.12c2.1-.3,2.56,1.2,3,2.73A5.22,5.22,0,0,1,124.6,77.12Z"/><path class="cls-13" d="M130.27,81.24h5.95c0,.2,0,.4,0,.61C134.3,81.11,132,83.54,130.27,81.24Z"/><path class="cls-14" d="M131.37,55.18c-1.72-.26-2.82,1.38-4.43,1.46,1.08-1.83,2.82-2.11,4.72-2C131.81,55,131.72,55.16,131.37,55.18Z"/><path class="cls-26" d="M117.64,57.94c-.5,1.18-.5,1.18-2,1.88-.45-.9.63-1.23.69-1.88A.9.9,0,0,1,117.64,57.94Z"/><path class="cls-27" d="M117.64,73.86a1.38,1.38,0,0,1-.66-1.32c-.78-1,0-1.46.66-2C119.75,71.65,117.09,72.76,117.64,73.86Z"/><path class="cls-28" d="M117.64,70.56l-.66,2c-.44.07-.87.75-1.31,0A1.85,1.85,0,0,1,117.64,70.56Z"/><path class="cls-29" d="M121,79.84c-.21-.22-.43-.44-.65-.65.46-.61,1.16-1,1.58-.24S121.5,79.74,121,79.84Z"/><path class="cls-30" d="M131.37,55.18a3.2,3.2,0,0,1,.29-.51c1.32.2,2.75-.33,4,.59Z"/><path class="cls-31" d="M142.2,59.87,140.79,58C142.22,57.9,143.25,58.11,142.2,59.87Z"/><path class="cls-32" d="M117.64,57.94h-1.31c.43-.78,1-1.65,1.93-1.12C118.79,57.13,117.71,57.46,117.64,57.94Z"/><path class="cls-8" d="M124.29,79.85l-.66.66a1.59,1.59,0,0,1-.47-2.1Z"/><path class="cls-1" d="M201.09,56.63a13.94,13.94,0,0,1,5.45,6.65,9.11,9.11,0,0,1,.6,7.26l0-.06c-.51,1.32.05,3-1.25,4.06l-.16.13,0,.2a3.14,3.14,0,0,1-1.41,2.25c-1.75,1.64-3.38,3.46-5.81,4.16-2.47.21-5,1.12-7.27-.75-1.09-1.13-2.74-1.69-3.33-3.32-.51-.63.36-2.31-1.48-1.93a6.92,6.92,0,0,1-1.26-4.47,9.59,9.59,0,0,1,.62-6.29,7.44,7.44,0,0,0,.75-3.33c.2-2.2,2.5-2.85,3.37-4.54a10.29,10.29,0,0,1,3.81-1.42c1.41-.32,2.82-.95,4.22,0l0,0C198.89,56,200.13,56,201.09,56.63Z"/><path class="cls-33" d="M186.61,61.19c.88.43,1.67.87.74,2-1.82,2.22-2.1,4.88-2.11,7.61C184,67.37,184.85,64.21,186.61,61.19Z"/><path class="cls-34" d="M207.89,64.58l1.52-3c.77,1,0,1.63-.19,2.3a20.31,20.31,0,0,1,0,8c-1.71-2,.37-4.67-1.33-6.64a.38.38,0,0,1-.17-.43C207.78,64.66,207.83,64.58,207.89,64.58Z"/><path class="cls-10" d="M191.31,80.53a14.63,14.63,0,0,0,7.27.75C196.06,82,193.44,83.64,191.31,80.53Z"/><path class="cls-35" d="M209.88,76.53a1.37,1.37,0,0,1-.66,1.32c-.85.45-2,.5-2.17-.38-.25-1.34,1.38-1.54,2.17-2.27C209.75,75.49,209.5,76.17,209.88,76.53Z"/><path class="cls-36" d="M209.22,71.88v-8c1.26,2.57.48,5.31.66,8Z"/><path class="cls-9" d="M207.89,64.58v.66c-.34,1.76.76,3.71-.75,5.3l-.6-7.26Z"/><path class="cls-9" d="M205.92,74.54c.42-1.36.83-2.71,1.25-4.06C207.15,72,208.57,73.87,205.92,74.54Z"/><path class="cls-33" d="M186.5,75.28l1.26-1.54c.19,1.19.87,2.26.22,3.47A3.6,3.6,0,0,1,186.5,75.28Z"/><path class="cls-37" d="M181.24,62.49c1.17.19,1.62.84,1.27,2.11-1.07-.37-1-1.33-1.25-2.13Z"/><path class="cls-38" d="M182.58,77.7c-.49.4-.71.62-.75.59a2.83,2.83,0,0,1-.9-.81c-.17-.32,0-.66.48-.44S182.16,77.46,182.58,77.7Z"/><path class="cls-39" d="M209.88,76.53a1.36,1.36,0,0,1-.66-1.33,1.37,1.37,0,0,0,.65-1.33h.67a1.38,1.38,0,0,1,0,2Z"/><path class="cls-9" d="M204.39,77.12l1.41-2.25C205.88,76,206.07,77.13,204.39,77.12Z"/><path class="cls-40" d="M210.53,75.86c0-.66,0-1.32,0-2,1.42-.54,1.13.64,1.33,1.32A1.35,1.35,0,0,1,210.53,75.86Z"/><path class="cls-41" d="M201.09,56.63a3.45,3.45,0,0,1-3.13-1.4A3.37,3.37,0,0,1,201.09,56.63Z"/><path class="cls-41" d="M198,55.25l-4.22,0,1.5-.63a2.14,2.14,0,0,1,2.47.12C197.84,54.89,197.93,55.07,198,55.25Z"/><path class="cls-42" d="M197.76,54.72l-2.47-.12c.83-1,2-.58,3-.59.44,0,.41.33.1.54A1.67,1.67,0,0,1,197.76,54.72Z"/><path class="cls-43" d="M143.42,74.34a4.1,4.1,0,0,1,.76-2.46c1.13-.83-.76-2.88,1.34-3.32,2.72,1.87,1.87,4.72,2,7.31-.17.12-.46.21-.5.37-.64,2.48-2.85,1.89-4.52,2.33C141.13,76.79,148.46,76.94,143.42,74.34Z"/><path class="cls-44" d="M148.18,75.87V68.71h.66v7.83Z"/><path class="cls-45" d="M148.17,77.87l.67,1.31c-.58-.07-1.37.21-1.62-.49S147.7,78,148.17,77.87Z"/><path class="cls-24" d="M145.52,68.56c-1.23.79-.06,2.55-1.34,3.32l.12-6.61A4.11,4.11,0,0,1,145.52,68.56Z"/></g></g></svg>